<?xml version="1.0" encoding="utf-8"?>
<!-- Generator: Adobe Illustrator 27.5.0, SVG Export Plug-In . SVG Version: 6.00 Build 0)  -->
<svg version="1.1" xmlns="http://www.w3.org/2000/svg" xmlns:xlink="http://www.w3.org/1999/xlink" x="0px" y="0px"
	 viewBox="0 0 500 500" style="enable-background:new 0 0 500 500;" xml:space="preserve">
<g id="BACKGROUND">
	<rect style="fill:#FFFFFF;" width="500" height="500"/>
</g>
<g id="OBJECTS">
	<g>
		<g>
			<path style="fill:#FC5185;" d="M231.838,185.729c-10.086-10.634-12.197-24.507-15.47-36.809
				c-3.273-12.302-8.106-19.306-7.255-23.715c0.851-4.409,7.743-5.455,12.546,1.283c4.803,6.738,9.82,17.765,11.687,19.981
				c1.867,2.216,7.267-26.43,8.047-38.649c0.78-12.219,0.038-14.023,2.576-17.814c2.538-3.791,9.52-4.038,9.767,2.944
				c0.247,6.981,0.464,32.838,0.704,34.967c0.24,2.13,2.103,1.92,2.546,1.061c0.443-0.859,9.742-33.179,12.1-38.567
				c2.359-5.388,9.61-3.239,9.085,1.672c-0.525,4.912-7.694,36.992-7.987,39.182c-0.292,2.19,1.867,2.216,2.606,1.594
				c0.739-0.622,10.795-21.435,14.841-26.205c4.046-4.769,9.73-2.174,8.14,2.857c-1.59,5.032-14.155,29.902-14.683,32.388
				c-0.529,2.486,2.103,1.92,2.812,1.031c0.709-0.889,11.575-14.514,14.263-16.974c2.688-2.46,9.374-2.943,6.13,4.162
				c-3.243,7.105-13.165,19.546-16.824,25.35c-3.66,5.804-12.299,24.84-18.737,32.305
				C262.295,195.238,243.158,197.664,231.838,185.729z"/>
			<path style="fill:#E82D67;" d="M277.354,169.771c-6.772,5.374-15.4,8.974-23.983,7.931
				c-12.587-1.529-22.007-12.409-27.754-23.711c-5.252-10.33-8.61-21.696-14.835-31.408c-0.853,0.613-1.454,1.51-1.669,2.622
				c-0.851,4.409,3.982,11.413,7.255,23.715c3.273,12.302,5.384,26.175,15.47,36.809c11.319,11.935,30.457,9.509,36.895,2.044
				c4.132-4.791,9.169-14.346,13.216-22.113C280.491,167.108,278.969,168.49,277.354,169.771z"/>
		</g>
		<g>
			<path style="fill:#FFAE00;" d="M208.358,213.054c-10.758,4.615-21.736,2.359-31.859,1.409
				c-10.123-0.951-16.708,0.733-19.776-1.124c-3.068-1.858-1.946-7.311,4.431-9.045c6.377-1.735,16.027-2.443,18.204-3.229
				c2.177-0.786-17.793-12.756-26.733-16.721c-8.94-3.965-10.497-3.907-12.635-6.858c-2.138-2.951-0.392-8.25,4.907-6.504
				c5.299,1.746,24.733,8.736,26.395,9.145c1.662,0.409,2.02-1.045,1.499-1.614c-0.521-0.569-22.165-16.477-25.55-19.735
				s0.231-8.096,3.766-6.344c3.535,1.752,25.589,15.998,27.148,16.823c1.56,0.825,2.177-0.786,1.915-1.512
				c-0.262-0.726-13.075-14.018-15.529-18.369c-2.454-4.351,1.062-7.892,4.393-5.309c3.33,2.583,18.489,18.877,20.205,19.961
				c1.716,1.084,2.02-1.045,1.551-1.822c-0.47-0.777-7.673-12.688-8.772-15.382s0.388-7.838,4.814-3.442
				c4.426,4.396,11.003,15.271,14.34,19.618c3.337,4.348,15.21,16.086,19.022,22.975
				C223.908,192.864,220.431,207.874,208.358,213.054z"/>
			<path style="fill:#FF8B00;" d="M208.992,174.535c2.153,6.561,2.464,14.021-0.691,20.164
				c-4.628,9.008-15.385,13.057-25.444,14.236c-9.192,1.078-18.638,0.449-27.637,2.427c0.223,0.809,0.729,1.507,1.503,1.976
				c3.068,1.857,9.653,0.174,19.776,1.124c10.123,0.951,21.101,3.206,31.859-1.409c12.074-5.18,15.55-20.19,11.738-27.079
				c-2.447-4.422-8.213-10.839-12.912-16.019C207.864,171.449,208.478,172.971,208.992,174.535z"/>
		</g>
		<g>
			<path style="fill:#36506B;" d="M280.524,197.536c0.208-12.029,6.949-21.368,12.107-30.456c5.158-9.088,6.355-15.969,9.389-18.063
				c3.034-2.093,7.672,1.257,6.611,7.966c-1.062,6.709-4.465,16.052-4.646,18.424s19.456-11.301,26.94-18.01
				c7.484-6.709,8.086-8.192,11.753-8.952c3.667-0.761,7.898,3.109,4.028,7.341c-3.87,4.231-18.612,19.501-19.697,20.886
				c-1.084,1.385,0.128,2.334,0.881,2.086c0.753-0.249,24.786-13.831,29.266-15.631c4.48-1.799,7.492,3.629,4.359,6.204
				c-3.132,2.575-25.78,17.242-27.211,18.356c-1.43,1.114-0.181,2.372,0.61,2.432c0.791,0.06,18.65-6.347,23.762-6.814
				c5.112-0.467,6.949,4.322,3.125,6.355c-3.825,2.033-25.487,9.374-27.226,10.526c-1.739,1.152,0.128,2.334,1.054,2.221
				c0.926-0.113,15.126-1.845,18.115-1.739c2.989,0.105,7.183,3.667,1.197,5.963c-5.986,2.297-18.951,3.878-24.432,5.173
				c-5.481,1.295-21.488,7.477-29.552,8.147C292.894,220.62,280.29,211.036,280.524,197.536z"/>
			<path style="fill:#284056;" d="M316.361,214.364c-7.057-0.747-14.181-3.6-18.608-9.146c-6.493-8.134-5.754-19.924-2.62-29.849
				c2.864-9.071,7.434-17.659,9.373-26.928c-0.852-0.131-1.72,0.048-2.485,0.576c-3.034,2.093-4.231,8.975-9.389,18.063
				c-5.158,9.088-11.899,18.427-12.107,30.456c-0.233,13.5,12.371,23.085,20.434,22.415c5.176-0.43,13.621-3.13,20.457-5.351
				C319.729,214.608,318.044,214.542,316.361,214.364z"/>
		</g>
		<g>
			<path style="fill:#3EC1C9;" d="M268.968,252.723c8.172,8.3,10.056,19.293,12.839,29.02c2.784,9.727,6.728,15.221,6.117,18.737
				c-0.611,3.516-6.072,4.45-9.988-0.833c-3.917-5.283-8.067-13.971-9.583-15.704c-1.517-1.733-5.382,21.11-5.821,30.831
				c-0.438,9.722,0.178,11.144-1.783,14.194c-1.961,3.05-7.505,3.35-7.805-2.194c-0.3-5.544-0.857-26.087-1.079-27.776
				c-0.222-1.689-1.7-1.494-2.039-0.805c-0.339,0.689-7.248,26.51-9.043,30.826c-1.794,4.316-7.588,2.717-7.244-1.194
				c0.344-3.911,5.565-29.509,5.765-31.254c0.2-1.744-1.517-1.733-2.094-1.228c-0.578,0.506-8.26,17.194-11.404,21.043
				c-3.144,3.85-7.699,1.872-6.511-2.15c1.189-4.022,10.804-23.971,11.187-25.954c0.383-1.983-1.7-1.494-2.25-0.778
				c-0.55,0.717-8.982,11.705-11.082,13.7c-2.1,1.994-7.405,2.478-4.933-3.216c2.472-5.694,10.171-15.727,12.993-20.394
				c2.822-4.666,9.404-19.921,14.409-25.949C244.624,245.619,259.796,243.407,268.968,252.723z"/>
			<path style="fill:#36A3A3;" d="M233.036,266.08c5.302-4.371,12.104-7.36,18.94-6.659c10.025,1.029,17.672,9.534,22.406,18.43
				c4.327,8.13,7.164,17.112,12.255,24.738c0.669-0.5,1.133-1.221,1.287-2.109c0.611-3.516-3.333-9.01-6.117-18.737
				c-2.784-9.727-4.667-20.719-12.839-29.02c-9.172-9.316-24.343-7.104-29.348-1.077c-3.212,3.869-7.073,11.536-10.174,17.768
				C230.583,268.242,231.772,267.122,233.036,266.08z"/>
		</g>
		<g>
			<path style="fill:#FFAE00;" d="M293.924,228.359c12.083-5.184,24.413-2.65,35.783-1.582c11.37,1.068,18.766-0.823,22.212,1.263
				c3.446,2.086,2.185,8.211-4.977,10.16c-7.163,1.949-18.001,2.744-20.446,3.627c-2.445,0.883,19.985,14.327,30.026,18.78
				c10.041,4.453,11.79,4.389,14.191,7.703s0.44,9.266-5.512,7.305s-27.779-9.812-29.646-10.272
				c-1.867-0.46-2.269,1.174-1.684,1.813c0.585,0.639,24.895,18.507,28.697,22.166c3.802,3.659-0.26,9.094-4.23,7.126
				c-3.97-1.968-28.741-17.969-30.492-18.895s-2.445,0.883-2.151,1.698c0.294,0.815,14.685,15.745,17.442,20.631
				c2.757,4.887-1.193,8.864-4.934,5.963c-3.741-2.901-20.766-21.202-22.694-22.42c-1.928-1.217-2.269,1.174-1.742,2.046
				c0.528,0.872,8.618,14.25,9.853,17.277c1.235,3.027-0.436,8.803-5.407,3.866c-4.972-4.937-12.359-17.152-16.106-22.035
				c-3.747-4.883-17.083-18.068-21.365-25.805C276.458,251.036,280.363,234.177,293.924,228.359z"/>
			<path style="fill:#FF8B00;" d="M293.212,271.622c-2.419-7.369-2.768-15.749,0.777-22.647c5.198-10.117,17.28-14.665,28.578-15.99
				c10.325-1.211,20.933-0.505,31.041-2.726c-0.251-0.909-0.819-1.693-1.688-2.219c-3.446-2.086-10.842-0.195-22.212-1.263
				c-11.37-1.068-23.701-3.601-35.783,1.582c-13.561,5.818-17.465,22.677-13.183,30.414c2.748,4.966,9.224,12.174,14.503,17.993
				C294.479,275.089,293.789,273.379,293.212,271.622z"/>
		</g>
		<g>
			<path style="fill:#36506B;" d="M223.8,247.734c-0.241,13.957-8.064,24.794-14.048,35.339
				c-5.984,10.545-7.374,18.53-10.894,20.959c-3.521,2.429-8.902-1.459-7.671-9.243c1.232-7.784,5.181-18.626,5.39-21.378
				c0.21-2.752-22.575,13.114-31.259,20.898c-8.684,7.784-9.383,9.505-13.638,10.388c-4.255,0.882-9.165-3.608-4.674-8.518
				c4.491-4.91,21.597-22.628,22.855-24.235c1.258-1.608-0.148-2.708-1.022-2.42c-0.874,0.288-28.761,16.049-33.959,18.137
				c-5.198,2.088-8.693-4.211-5.059-7.199c3.634-2.988,29.914-20.007,31.574-21.3c1.66-1.293,0.21-2.752-0.708-2.822
				c-0.917-0.07-21.64,7.365-27.572,7.907c-5.932,0.542-8.064-5.015-3.626-7.374c4.438-2.359,29.573-10.877,31.591-12.214
				s-0.148-2.708-1.223-2.577c-1.075,0.131-17.552,2.141-21.02,2.018s-8.335-4.255-1.389-6.919c6.945-2.665,21.99-4.499,28.35-6.002
				c6.36-1.503,24.934-8.675,34.291-9.453C209.446,220.947,224.071,232.069,223.8,247.734z"/>
			<path style="fill:#284056;" d="M182.217,228.207c8.189,0.866,16.455,4.177,21.592,10.613c7.534,9.438,6.677,23.119,3.041,34.635
				c-3.323,10.525-8.626,20.49-10.876,31.246c0.989,0.152,1.996-0.056,2.884-0.669c3.521-2.429,4.91-10.414,10.894-20.959
				c5.984-10.545,13.807-21.382,14.048-35.339c0.271-15.665-14.354-26.786-23.711-26.009c-6.005,0.499-15.805,3.632-23.738,6.209
				C178.308,227.924,180.264,228,182.217,228.207z"/>
		</g>
		<path style="fill:#FC5185;" d="M324.342,112.03c-2.042-0.465-3.878,0.353-5.049,2.055c-1.509,2.192-1.74,5.359-1.822,7.93
			c-0.051,1.624,1.192,3.165,2.732,3.588c1.701,0.467,3.215-0.365,4.202-1.71c1.592-2.171,3.048-4.823,3.22-7.551
			C327.742,114.471,326.159,112.443,324.342,112.03z"/>
		<path style="fill:#FC5185;" d="M334.949,124.145c-1.881-0.445-3.85,0.27-5.366,1.424c-1.184,0.902-2.566,1.926-2.783,3.502
			c-0.154,1.122,0.116,2.085,1.108,2.722c1.42,0.914,3.082,0.587,4.639,0.249c1.674-0.364,3.637-1.352,4.426-2.924
			C337.911,127.245,337.195,124.676,334.949,124.145z"/>
		<path style="fill:#FC5185;" d="M197.872,113.152c-0.259-0.853-0.494-1.73-1.04-2.448c-1.001-1.315-2.063-1.865-3.721-2.037
			c-1.269-0.132-2.55,0.799-3.175,1.821c-1.281,2.095-0.487,4.133,0.814,5.912c1.059,1.448,2.055,2.75,3.899,3.179
			c1.078,0.251,2.647-0.139,3.137-1.277c0.329-0.762,0.505-1.35,0.613-2.153C198.541,115.092,198.173,114.145,197.872,113.152z"/>
		<path style="fill:#FC5185;" d="M190.707,122.769c-2.309-1.604-5.496-2.497-7.862-0.491c-0.852,0.722-0.93,2.165-0.398,3.082
			c1.539,2.655,5.093,2.633,7.671,1.917C192.282,126.678,192.397,123.944,190.707,122.769z"/>
		<path style="fill:#FC5185;" d="M143.833,210.064c-0.474-0.663-0.944-1.403-1.658-1.83c-0.674-0.404-1.497-0.673-2.212-0.994
			c-1.845-0.829-3.322-1.449-5.374-1.001c-2.467,0.539-2.691,3.464-1.354,5.126c1.114,1.385,2.711,1.775,4.35,2.208
			c1.654,0.437,2.984,0.806,4.686,0.331C143.775,213.483,144.834,211.465,143.833,210.064z"/>
		<path style="fill:#FC5185;" d="M144.454,218.798c-3.122-3.164-11.738,2.122-8.099,5.816c1.774,1.801,4.872,0.831,6.55-0.651
			C144.179,222.837,146.063,220.427,144.454,218.798z"/>
		<path style="fill:#FC5185;" d="M372.838,213.734c-0.195-1.295-1.167-2.721-2.561-2.973c-2.236-0.404-5.025,0.462-6.86,1.82
			c-1.76,1.302-3.539,3.861-1.678,5.842c1.283,1.367,3.254,1.071,4.887,0.599c0.616-0.178,1.202-0.496,1.815-0.695
			c0.929-0.302,1.884-0.435,2.69-1.029C372.307,216.431,373.069,215.266,372.838,213.734z"/>
		<path style="fill:#FC5185;" d="M369.288,224.55c-0.707-0.772-1.603-1.081-2.534-1.476c-0.904-0.384-1.55-0.601-2.545-0.416
			c-0.268,0.05-0.527,0.116-0.791,0.188c-1.151,0.314-1.63,1.439-1.44,2.537c0.183,1.058,0.561,1.844,1.375,2.584
			c0.881,0.801,1.676,1.532,2.838,1.904c1.286,0.412,2.961-0.261,3.595-1.463C370.469,227.114,370.278,225.632,369.288,224.55z"/>
		<path style="fill:#FC5185;" d="M195.267,313.07c-0.734-0.106-1.443-0.253-2.182-0.088c-0.771,0.172-1.483,0.652-2.167,1.032
			c-1.327,0.737-2.353,1.67-3.437,2.716c0.02-0.003,0.039-0.005,0.059-0.008c-1.216,1.235-1.48,3.143-0.334,4.626
			c1.393,1.803,3.591,1.649,5.249,0.356c0.484-0.378,1.003-0.735,1.462-1.141c0.584-0.516,1.024-1.184,1.497-1.806
			c0.318-0.418,0.667-0.825,0.929-1.279c0.444-0.769,0.482-1.526,0.472-2.374C196.806,314.275,196.173,313.201,195.267,313.07z"/>
		<path style="fill:#FC5185;" d="M204.089,319.349c-0.453-1.713-2.125-3.752-4.088-2.609c-1.151,0.67-1.615,1.951-1.794,3.212
			c-0.169,1.191-0.37,2.522-0.079,3.684c0.482,1.927,3.385,2.94,4.749,1.254C204.056,323.433,204.582,321.213,204.089,319.349z"/>
		<path style="fill:#FC5185;" d="M297.32,313.905c-0.087-1.349-0.428-2.284-1.403-3.243c-1.136-1.116-3.004-1.119-4.143,0
			c-0.946,0.93-1.318,1.915-1.403,3.243c-0.047,0.723-0.06,1.451-0.09,2.174c-0.077,1.866,1.695,3.649,3.565,3.565
			c1.865-0.084,3.648-1.569,3.565-3.565C297.38,315.355,297.367,314.628,297.32,313.905z"/>
		<path style="fill:#FC5185;" d="M307.115,311.636c-0.931-1.056-1.83-2.4-3.126-3.01c-2.474-1.165-4.762,0.74-4.357,3.35
			c0.217,1.398,1.289,2.686,2.031,3.867c1,1.592,2.216,3.355,4.353,3.171c1.506-0.13,2.458-0.901,2.997-2.282
			C309.803,314.707,308.356,313.045,307.115,311.636z"/>
	</g>
	<path style="fill:#FC5185;" d="M119.065,395.848H96.637c-0.834,0-1.51-0.676-1.51-1.51l0,0c0-0.834,0.676-1.51,1.51-1.51h22.428
		c0.834,0,1.51,0.676,1.51,1.51l0,0C120.575,395.172,119.899,395.848,119.065,395.848z"/>
	<path style="fill:#FC5185;" d="M406.144,395.848h-22.428c-0.834,0-1.51-0.676-1.51-1.51l0,0c0-0.834,0.676-1.51,1.51-1.51h22.428
		c0.834,0,1.51,0.676,1.51,1.51l0,0C407.654,395.172,406.978,395.848,406.144,395.848z"/>
</g>
<g id="TEXTS">
	<text transform="matrix(1 0 0 1 91.005 378.4046)" style="fill:#284056; font-family:'Montserrat-Bold'; font-size:48.7945px;">TEAMWORK</text>
	
		<text transform="matrix(1 0 0 1 122.9189 400.1082)" style="fill:#FC5185; font-family:'Quicksand-Bold'; font-size:16.2978px; letter-spacing:3;">YOUR COMPANY SLOGAN</text>
</g>
</svg>
