<?xml version="1.0" encoding="utf-8"?>
<!-- Generator: Adobe Illustrator 27.5.0, SVG Export Plug-In . SVG Version: 6.00 Build 0)  -->
<svg version="1.1" xmlns="http://www.w3.org/2000/svg" xmlns:xlink="http://www.w3.org/1999/xlink" x="0px" y="0px"
	 viewBox="0 0 500 500" style="enable-background:new 0 0 500 500;" xml:space="preserve">
<g id="BACKGROUND">
	<rect style="fill:#152F3A;" width="500" height="499.971"/>
</g>
<g id="OBJECTS">
	<path style="fill:#F9F4D4;" d="M61.227,186.761c1.132-25.328,8.255-49.84,23.99-72.429
		c59.177-84.953,206.836-83.275,288.398-35.809c24.49,14.253,45.528,36.158,53.898,63.308c6.76,21.929,4.925,45.441,4.731,68.402
		c-0.219,25.888,5.141,45.071,15.465,68.27c8.262,18.568,9.943,40.664,6.513,60.548c-7.44,43.145-38.981,78.143-76.76,98.055
		c-60.045,31.646-155.162,32.333-228.238,14.445c-36.933-9.041-72.174-27.465-90.042-53.485
		c-14.217-20.703-16.355-44.426-11.727-66.293c3.721-17.582,12.439-33.311,19.739-49.902c5.851-13.299,3.429-24.836-0.003-39.264
		C62.727,223.843,60.408,205.088,61.227,186.761z"/>
	<circle style="fill:none;stroke:#F9F4D4;stroke-miterlimit:10;" cx="81.641" cy="83.26" r="5.917"/>
	<g>
		<path style="fill:#61A49A;" d="M59.21,118.979c0,4.617-0.772,8.36-1.724,8.36c-0.952,0-1.724-3.743-1.724-8.36
			c0-4.617,0.772-8.36,1.724-8.36C58.439,110.619,59.21,114.362,59.21,118.979z"/>
		<path style="fill:#61A49A;" d="M57.487,117.255c4.617,0,8.36,0.772,8.36,1.724c0,0.952-3.743,1.724-8.36,1.724
			c-4.617,0-8.36-0.772-8.36-1.724C49.126,118.027,52.869,117.255,57.487,117.255z"/>
	</g>
	<g>
		<path style="fill:#FFA506;" d="M439.876,109.632c0,5.341-0.893,9.671-1.994,9.671s-1.994-4.33-1.994-9.671
			c0-5.341,0.893-9.671,1.994-9.671S439.876,104.291,439.876,109.632z"/>
		<path style="fill:#FFA506;" d="M437.882,107.638c5.341,0,9.671,0.893,9.671,1.994c0,1.101-4.33,1.994-9.671,1.994
			s-9.671-0.893-9.671-1.994C428.211,108.531,432.541,107.638,437.882,107.638z"/>
	</g>
	<polygon style="fill:none;stroke:#61A49A;stroke-width:0.717;stroke-miterlimit:10;" points="194.06,33.783 189.103,35.386 
		184.146,36.989 185.236,31.894 186.326,26.8 190.193,30.291 	"/>
	<polygon style="fill:#61A49A;" points="450.794,170.652 445.59,166.242 440.386,161.832 446.808,159.53 453.229,157.229 
		452.012,163.941 	"/>
	<path style="fill:#F9F4D4;" d="M335.301,45.934c0,2.189-1.774,3.963-3.963,3.963c-2.189,0-3.963-1.774-3.963-3.963
		c0-2.189,1.774-3.963,3.963-3.963C333.527,41.97,335.301,43.745,335.301,45.934z"/>
	<g>
		<g>
			<path style="fill:none;stroke:#FFA506;stroke-width:1.9222;stroke-miterlimit:10;" d="M379.006,399.24
				c0,0-19.229-33.635,51.006-143.847"/>
			<g>
				<path style="fill:#FFA506;" d="M413.962,252.943c8.351,14.442,2.257,26.422,2.257,26.422s-10.176-8.782-7.913-25.311
					C408.703,251.156,412.497,250.411,413.962,252.943z"/>
				<path style="fill:#FFA506;" d="M440.983,269.879c-16.638-1.221-24.764,9.486-24.764,9.486s12.339,5.33,26.229-3.911
					C444.882,273.834,443.9,270.094,440.983,269.879z"/>
			</g>
			<g>
				<path style="fill:#FFA506;" d="M396.1,281.088c9.76,13.53,4.901,26.062,4.901,26.062s-11.007-7.715-10.416-24.387
					C390.689,279.839,394.389,278.716,396.1,281.088z"/>
				<path style="fill:#FFA506;" d="M424.687,295.224c-16.676,0.457-23.685,11.926-23.685,11.926s12.813,4.063,25.703-6.527
					C428.964,298.766,427.611,295.144,424.687,295.224z"/>
			</g>
			<g>
				<path style="fill:#FFA506;" d="M382.397,306.395c10.735,12.77,6.816,25.628,6.816,25.628s-11.548-6.879-12.192-23.55
					C376.908,305.55,380.515,304.156,382.397,306.395z"/>
				<path style="fill:#FFA506;" d="M411.952,318.376c-16.598,1.69-22.738,13.646-22.738,13.646s13.078,3.104,25.149-8.411
					C416.479,321.593,414.861,318.081,411.952,318.376z"/>
			</g>
			<path style="fill:#FFA506;" d="M446.668,237.449c-4.805,15.976-17.708,19.739-17.708,19.739s-0.569-13.429,13.025-23.099
				C444.369,232.393,447.51,234.647,446.668,237.449z"/>
		</g>
		<g>
			<path style="fill:#61A49A;" d="M379.067,384.473c0,0,61.838-7.978,55.739-21.422c-6.099-13.444-24.788-1.888-8.46-22.756
				c16.328-20.868,62.331-49.535,42.434-63.244C448.882,263.343,377.861,333.485,379.067,384.473z"/>
			<g style="opacity:0.59;">
				<path style="fill:#305866;" d="M468.779,277.051c-4.319,3.653-8.569,7.382-12.743,11.194c-4.196,3.787-8.332,7.64-12.393,11.569
					c-8.123,7.854-16.077,15.889-23.578,24.333c-3.792,4.184-7.474,8.467-11.023,12.856c-1.796,2.178-3.505,4.424-5.236,6.653
					c-1.669,2.275-3.388,4.514-4.999,6.831c-3.27,4.599-6.366,9.327-9.141,14.242c-2.821,4.888-5.343,9.953-7.463,15.2
					c3.819-10.665,9.468-20.616,15.875-29.949c3.168-4.701,6.603-9.215,10.146-13.636c3.536-4.427,7.201-8.75,10.983-12.968
					c7.596-8.405,15.558-16.473,23.828-24.205C451.321,291.461,459.848,284,468.779,277.051z"/>
			</g>
			<path style="fill:#407C72;" d="M469.333,296.279c-7.224,1.986-21.856,7.028-31.451,17.213
				c-8.483,9.005-6.026,14.726-3.211,17.657C446.172,319.725,461.834,307.124,469.333,296.279z"/>
			<path style="fill:#407C72;" d="M400.313,326.444c15.654,0.386,18.035-14.731,18.205-22.651
				C412.084,310.614,405.853,318.299,400.313,326.444z"/>
			<path style="fill:#407C72;" d="M433.541,368.568c-10.217-4.837-34.922-13.805-34.81,12.587
				C412.136,378.451,428.352,374.166,433.541,368.568z"/>
		</g>
		<path style="fill:#61A49A;" d="M464.141,253.716c0,2.98-2.416,5.397-5.396,5.397c-2.981,0-5.397-2.416-5.397-5.397
			c0-2.98,2.416-5.397,5.397-5.397C461.725,248.32,464.141,250.736,464.141,253.716z"/>
		<g>
			<path style="fill:#61A49A;" d="M439.875,346.413c0,0,7.618-27.755,37.74-23.915C472.747,338.519,454.446,346.52,439.875,346.413z
				"/>
			<path style="fill:#407C72;" d="M477.615,322.498c0,0-20.901,7.036-37.74,23.915C454.446,346.52,472.747,338.519,477.615,322.498z
				"/>
			<g>
				<path style="fill:#305866;" d="M477.615,322.498c-2.016,0.905-4.024,1.813-5.987,2.818c-1.982,0.961-3.938,1.974-5.871,3.025
					c-3.866,2.101-7.672,4.308-11.33,6.742c-3.698,2.375-7.199,5.031-10.616,7.788l-2.502,2.145
					c-0.845,0.705-1.592,1.513-2.397,2.262c-1.663,1.454-3.051,3.164-4.609,4.739c2.638-3.543,5.642-6.834,8.954-9.788
					c3.321-2.938,6.848-5.651,10.567-8.067c3.741-2.378,7.571-4.617,11.546-6.571C469.346,325.646,473.411,323.871,477.615,322.498z
					"/>
			</g>
		</g>
	</g>
	<g>
		<g>
			<path style="fill:none;stroke:#FFA506;stroke-width:1.9222;stroke-miterlimit:10;" d="M120.999,399.24
				c0,0,19.228-33.635-51.006-143.847"/>
			<g>
				<path style="fill:#FFA506;" d="M86.044,252.943c-8.351,14.442-2.257,26.422-2.257,26.422s10.176-8.782,7.913-25.311
					C91.302,251.156,87.508,250.411,86.044,252.943z"/>
				<path style="fill:#FFA506;" d="M59.023,269.879c16.638-1.221,24.764,9.486,24.764,9.486s-12.339,5.33-26.229-3.911
					C55.123,273.834,56.106,270.094,59.023,269.879z"/>
			</g>
			<g>
				<path style="fill:#FFA506;" d="M103.905,281.088c-9.76,13.53-4.901,26.062-4.901,26.062s11.007-7.715,10.416-24.387
					C109.316,279.839,105.616,278.716,103.905,281.088z"/>
				<path style="fill:#FFA506;" d="M75.319,295.224c16.676,0.457,23.685,11.926,23.685,11.926s-12.813,4.063-25.703-6.527
					C71.041,298.766,72.395,295.144,75.319,295.224z"/>
			</g>
			<g>
				<path style="fill:#FFA506;" d="M117.608,306.395c-10.735,12.77-6.816,25.628-6.816,25.628s11.548-6.879,12.192-23.55
					C123.097,305.55,119.49,304.156,117.608,306.395z"/>
				<path style="fill:#FFA506;" d="M88.054,318.376c16.597,1.69,22.738,13.646,22.738,13.646s-13.078,3.104-25.149-8.411
					C83.526,321.593,85.144,318.081,88.054,318.376z"/>
			</g>
			<path style="fill:#FFA506;" d="M53.337,237.449c4.805,15.976,17.708,19.739,17.708,19.739s0.569-13.429-13.025-23.099
				C55.637,232.393,52.495,234.647,53.337,237.449z"/>
		</g>
		<g>
			<path style="fill:#61A49A;" d="M120.938,384.473c0,0-61.838-7.978-55.739-21.422c6.099-13.444,24.788-1.888,8.46-22.756
				c-16.328-20.868-62.331-49.535-42.434-63.244C51.123,263.343,122.145,333.485,120.938,384.473z"/>
			<g style="opacity:0.59;">
				<path style="fill:#305866;" d="M31.226,277.051c8.932,6.948,17.458,14.409,25.745,22.121
					c8.27,7.732,16.232,15.799,23.828,24.205c3.782,4.217,7.447,8.54,10.983,12.968c3.542,4.421,6.977,8.935,10.146,13.636
					c6.407,9.333,12.055,19.284,15.875,29.949c-2.119-5.247-4.642-10.312-7.463-15.2c-2.775-4.915-5.872-9.644-9.141-14.242
					c-1.611-2.317-3.33-4.556-4.999-6.831c-1.731-2.229-3.441-4.474-5.236-6.653c-3.549-4.389-7.231-8.673-11.023-12.856
					c-7.501-8.444-15.455-16.479-23.578-24.333c-4.062-3.929-8.197-7.781-12.393-11.569
					C39.795,284.434,35.545,280.704,31.226,277.051z"/>
			</g>
			<path style="fill:#407C72;" d="M30.673,296.279c7.224,1.986,21.856,7.028,31.451,17.213c8.483,9.005,6.027,14.726,3.211,17.657
				C53.834,319.725,38.171,307.124,30.673,296.279z"/>
			<path style="fill:#407C72;" d="M99.692,326.444c-15.654,0.386-18.034-14.731-18.204-22.651
				C87.922,310.614,94.153,318.299,99.692,326.444z"/>
			<path style="fill:#407C72;" d="M66.465,368.568c10.217-4.837,34.922-13.805,34.81,12.587
				C87.87,378.451,71.653,374.166,66.465,368.568z"/>
		</g>
		<circle style="fill:#FFA506;" cx="41.26" cy="253.716" r="5.397"/>
		<g>
			<path style="fill:#61A49A;" d="M60.13,346.413c0,0-7.618-27.755-37.74-23.915C27.258,338.519,45.56,346.52,60.13,346.413z"/>
			<path style="fill:#407C72;" d="M22.39,322.498c0,0,20.901,7.036,37.74,23.915C45.56,346.52,27.258,338.519,22.39,322.498z"/>
			<g>
				<path style="fill:#305866;" d="M22.39,322.498c4.204,1.374,8.269,3.148,12.245,5.093c3.975,1.953,7.805,4.193,11.546,6.571
					c3.719,2.416,7.246,5.129,10.567,8.067c3.311,2.954,6.315,6.245,8.954,9.788c-1.558-1.575-2.946-3.285-4.609-4.739
					c-0.806-0.749-1.552-1.557-2.397-2.262l-2.502-2.145c-3.417-2.757-6.918-5.413-10.616-7.788
					c-3.658-2.434-7.464-4.641-11.33-6.742c-1.933-1.051-3.889-2.064-5.871-3.025C26.414,324.311,24.406,323.403,22.39,322.498z"/>
			</g>
		</g>
	</g>
	<g>
		<path style="fill:#893622;" d="M337.5,151.408c0,0-9.693,1.74-27.092,23.924c-17.399,22.184-59.158,82.493-59.158,82.493
			l27.839,7.113l43.063-56.765C322.153,208.173,341.974,156.628,337.5,151.408z"/>
		<path style="fill:#6D2517;" d="M279.09,264.938l-24.952-6.376l-1.129-3.271c4.364-6.282,16.252-23.349,28.68-40.805
			c1.886,8.651,6.759,17.676,17.817,23.54L279.09,264.938z"/>
		<path style="fill:#FFA506;" d="M394.794,311.481c0,0,14.354,76.049,2.175,128.682c-42.193,0-135.279,0-135.279,0l35.234-132.871
			L394.794,311.481z"/>
		<g>
			<path style="fill:#A36307;" d="M349.556,315.618c1.372,5.18,3.144,10.211,5.234,15.083c2.104,4.864,4.602,9.543,7.588,13.876
				c2.993,4.321,6.513,8.28,10.628,11.548c2.036,1.665,4.276,3.064,6.59,4.336c2.315,1.293,4.803,2.234,7.326,3.154
				c-2.631-0.491-5.256-1.198-7.746-2.273c-2.472-1.094-4.906-2.359-7.1-3.976c-2.219-1.577-4.296-3.366-6.178-5.335
				c-1.873-1.979-3.589-4.1-5.154-6.324c-3.053-4.499-5.541-9.356-7.389-14.432C351.501,326.209,350.121,320.96,349.556,315.618z"/>
		</g>
		<path style="fill:none;stroke:#A36307;stroke-width:1.9885;stroke-miterlimit:10;" d="M379.407,309.406
			c0,0,18.106,74.644,0,130.756"/>
		<g>
			<path style="fill:#A36307;" d="M317.368,309.741c-0.855,5.273-1.48,10.551-1.898,15.834c-0.183,2.644-0.353,5.284-0.399,7.927
				c-0.073,2.641-0.07,5.283,0.066,7.915c0.096,2.633,0.3,5.263,0.657,7.868c0.328,2.608,0.791,5.201,1.426,7.75
				c0.655,2.54,1.402,5.072,2.438,7.497c1.013,2.435,2.254,4.775,3.691,7.034c-1.788-1.99-3.289-4.244-4.574-6.617
				c-1.271-2.385-2.246-4.919-3.05-7.499c-1.592-5.175-2.334-10.571-2.573-15.948c-0.221-5.385,0.08-10.77,0.781-16.088
				C314.647,320.101,315.711,314.828,317.368,309.741z"/>
		</g>
		<g>
			<path style="fill:#A36307;" d="M330.42,308.726c-0.851,10.996-1.827,21.978-2.93,32.946c-1.075,10.971-2.266,21.929-3.479,32.884
				c-1.25,10.951-2.525,21.9-3.915,32.835c-1.362,10.939-2.852,21.863-4.469,32.772c0.849-10.996,1.823-21.978,2.927-32.946
				c1.076-10.971,2.266-21.929,3.482-32.884c1.252-10.951,2.527-21.899,3.918-32.835C327.317,330.56,328.806,319.636,330.42,308.726
				z"/>
		</g>
		<path style="opacity:0.46;fill:#4F2222;" d="M357.883,328.043c-29.214,0.53-51.617-5.715-63.765-10.172l2.057-7.758l8.777-2.478
			l89.842,3.845c0,0,14.354,76.049,2.175,128.682c-8.159,0-18.225,0-29.149,0C376.944,400.371,394.75,327.375,357.883,328.043z"/>
		<path style="fill:#61A49A;" d="M367.391,147.352l23.924,11.886c0,0-16.964,104.396,3.48,152.243
			c-36.103,12.615-76.122,12.936-97.871-4.189c18.269-46.269,24.794-66.467,24.794-66.467s-13.049-12.509-11.309-26.387
			c1.74-13.878,27.092-63.031,27.092-63.031L367.391,147.352z"/>
		<polygon style="fill:#305866;" points="94.86,355.13 93.788,440.163 212.429,440.163 201.615,355.13 		"/>
		<g>
			<path style="fill:#61A49A;" d="M156.74,359.691c0.355,4.311-0.635,8.736-2.57,12.694c-0.959,1.991-2.228,3.835-3.682,5.513
				c-1.47,1.668-3.168,3.126-4.983,4.398c-1.826,1.266-3.821,2.249-5.851,3.095l-1.546,0.577c-0.517,0.186-1.048,0.325-1.571,0.489
				c-1.041,0.35-2.117,0.558-3.183,0.795c-4.277,0.892-8.649,1.067-12.941,0.717c4.281-0.478,8.513-1.085,12.58-2.226
				c4.052-1.146,7.979-2.724,11.392-5.088c3.431-2.319,6.332-5.391,8.424-9C154.882,368.043,156.269,363.967,156.74,359.691z"/>
		</g>
		
			<line style="fill:none;stroke:#61A49A;stroke-width:1.9885;stroke-miterlimit:10;" x1="121.881" y1="358.386" x2="117.82" y2="440.163"/>
		<g>
			<path style="fill:#61A49A;" d="M188.178,354.036c0.527,4.958,0.686,9.944,0.653,14.928c-0.027,4.985-0.303,9.972-0.839,14.942
				c-0.577,4.961-1.366,9.93-2.831,14.753c-0.728,2.408-1.621,4.785-2.848,7.007c-1.236,2.176-2.885,4.328-5.195,5.362
				c2.071-1.422,3.353-3.578,4.321-5.798c0.977-2.234,1.643-4.599,2.224-6.977c0.556-2.387,1.036-4.799,1.389-7.236
				c0.388-2.43,0.714-4.875,0.964-7.33c0.296-2.45,0.513-4.912,0.713-7.376c0.228-2.463,0.376-4.933,0.556-7.404L188.178,354.036z"
				/>
		</g>
		<g>
			<path style="fill:#61A49A;" d="M174.259,355.13c0.746,7.066,1.366,14.139,1.859,21.219c0.521,7.078,0.926,14.162,1.308,21.247
				c0.345,7.087,0.665,14.175,0.87,21.269c0.233,7.093,0.336,14.192,0.313,21.298c-0.748-7.066-1.37-14.139-1.862-21.219
				c-0.52-7.078-0.925-14.162-1.305-21.247c-0.343-7.087-0.663-14.175-0.867-21.269C174.343,369.335,174.238,362.236,174.259,355.13
				z"/>
		</g>
		<g>
			<path style="fill:#61A49A;" d="M191.658,358.386c0.524,2.55,1.056,5.052,1.666,7.521c0.635,2.459,1.315,4.893,2.249,7.207
				c0.897,2.323,2.04,4.537,3.575,6.433c1.527,1.91,3.592,3.339,6.095,4.111c-2.614,0.076-5.323-1.122-7.232-3.055
				c-0.989-0.937-1.791-2.039-2.517-3.17c-0.699-1.15-1.262-2.363-1.769-3.591c-0.956-2.48-1.58-5.052-1.919-7.647
				C191.469,363.603,191.36,360.981,191.658,358.386z"/>
		</g>
		<path style="opacity:0.46;fill:#0A1F3E;" d="M94.778,361.678l0.083-6.548h106.755l1.217,9.569
			C192.113,368.692,154.554,379.397,94.778,361.678z"/>
		<path style="fill:#C4714D;" d="M172.084,141.766c0,0,19.139,1.74,36.538,33.494c17.399,31.753,36.538,88.301,36.538,88.301
			l-39.148,6.525l-24.794-61.332L172.084,141.766z"/>
		<path style="fill:#FFA506;" d="M172.084,141.766c0,0,19.139,1.74,36.538,33.493c4.585,8.368,9.291,18.458,13.735,28.78
			c-10.762,0.804-27.988,4.278-35.866,17.758l-5.273-13.045L172.084,141.766z"/>
		<path style="fill:#F9F4D4;" d="M186.492,221.798l-5.273-13.045l-0.347-2.542c10.421-8.467,26.786-12.977,35.774-14.936
			c1.931,4.143,3.845,8.429,5.712,12.765C211.596,204.844,194.37,208.317,186.492,221.798z"/>
		<path style="fill:#FFA506;" d="M125.541,138.286l-38.278,19.139v194.871c0,0,59.157,25.664,118.75,4.785
			c-14.79-168.338-33.929-215.316-33.929-215.316L125.541,138.286z"/>
		<path style="fill:#F9F4D4;" d="M298.994,302.032c1.132-2.884,2.213-5.655,3.248-8.321c30.421,4.908,77.401,2.357,87.46,1.73
			c0.659,2.824,1.395,5.551,2.215,8.162C355.036,313.126,311.591,304.835,298.994,302.032z"/>
		<path style="opacity:0.35;fill:#A36307;" d="M87.263,241.065v-31.632l108.852,55.258c2.949,22.651,5.922,49.086,8.761,79.797
			c-22.904,1.844-50.027-0.758-50.027-0.758l-2.773-44.066L87.263,241.065z"/>
		
			<rect x="163.615" y="243.116" transform="matrix(-1 -1.224647e-16 1.224647e-16 -1 446.1845 579.7534)" style="fill:#B56A2D;" width="118.954" height="93.521"/>
		<path style="fill:#F9F4D4;" d="M87.263,352.296v-13.315c49.758,19.614,98.66,11.513,117.75,7.003c0.335,3.646,0.669,7.33,1,11.096
			C146.42,377.96,87.263,352.296,87.263,352.296z"/>
		<path style="opacity:0.35;fill:#A36307;" d="M170.997,165.69c0,0-9.05,62.311-35.191,76.339c-6.241-9.135-6.241-9.135-6.241-9.135
			S159.578,208.753,170.997,165.69z"/>
		
			<rect x="282.569" y="243.116" transform="matrix(-1 -1.224647e-16 1.224647e-16 -1 585.1479 579.7534)" style="fill:#773D15;" width="20.009" height="93.521"/>
		<path style="fill:#F9F4D4;" d="M102.269,149.922l23.272-11.636l43.494,3.252C162.343,153.593,143.543,175.338,102.269,149.922z"/>
		<path style="fill:#C4714D;" d="M108.401,146.856l17.14-8.57l36.865,2.756C156.66,149.581,141.028,164.583,108.401,146.856z"/>
		<path style="fill:#F9F4D4;" d="M329.939,166.556h60.301c-0.347,2.517-0.756,5.62-1.191,9.204h-63.522
			C327.051,172.526,328.548,169.412,329.939,166.556z"/>
		<g>
			<circle style="fill:#F9F4D4;" cx="223.224" cy="289.615" r="23.95"/>
		</g>
		<rect x="217.497" y="271.932" style="fill:#61A49A;" width="11.453" height="36.719"/>
		
			<rect x="217.497" y="271.932" transform="matrix(-1.836970e-16 1 -1 -1.836970e-16 513.5154 67.0674)" style="fill:#61A49A;" width="11.453" height="36.719"/>
		<path style="fill:#F9F4D4;" d="M387.218,192.73c-0.278,2.942-0.548,6.019-0.801,9.204h-72.288
			c1.091-2.876,2.361-5.986,3.734-9.204H387.218z"/>
		<path style="fill:#F9F4D4;" d="M385.314,218.904c-0.15,3.024-0.277,6.097-0.375,9.204h-72.076
			c-1.273-2.808-2.244-5.929-2.524-9.204H385.314z"/>
		<path style="fill:#F9F4D4;" d="M317.045,254.282c1.422-3.966,2.488-7.018,3.24-9.204h64.438c0.023,3.07,0.084,6.143,0.185,9.204
			H317.045z"/>
		<path style="fill:#F9F4D4;" d="M307.34,280.456c1.25-3.284,2.407-6.35,3.475-9.204h75.133c0.289,3.118,0.636,6.191,1.044,9.204
			H307.34z"/>
		<path style="fill:#773D15;" d="M163.615,299.881c0,0,38.7,26.316,44.138,30.231c5.437,3.915,7.612,6.525,7.612,6.525h12.614
			l-32.182-37.191l-32.182-6.874V299.881z"/>
		
			<line style="fill:none;stroke:#A36307;stroke-width:0.9943;stroke-miterlimit:10;" x1="102.269" y1="236.156" x2="106.565" y2="345.293"/>
		<path style="fill:#C4714D;" d="M87.263,157.425c0,0-37.408,16.964-20.444,50.023c16.964,33.059,150.068,122.665,150.068,122.665
			s8.265,9.57,13.484,12.18c5.22,2.61,8.758,0.87,11.556,0.87s14.108,0.435,15.848-5.22c0.87-1.74,0.87-1.74,0.87-1.74h-8.888
			l-7.83-7.829c0,0,4.973,0.87,9.758-0.435c4.785-1.305,2.61-4.35-4.785-7.395c-7.395-3.045-20.009-5.655-20.009-5.655
			s-45.673-50.458-54.808-60.462C162.95,244.421,99.007,163.08,87.263,157.425z"/>
		<path style="fill:#FFA506;" d="M87.263,157.425c6.928,3.336,32.018,33.007,53.308,58.837
			c-10.551,2.292-30.165,9.816-31.605,34.138c-20.298-16.86-36.861-32.651-42.147-42.952
			C49.855,174.389,87.263,157.425,87.263,157.425z"/>
		<path style="fill:#F9F4D4;" d="M108.966,250.4c-4.963-4.122-9.7-8.179-14.105-12.109c3.207-24.869,22.692-33.47,33.805-36.374
			c4.006,4.788,8.019,9.63,11.905,14.345C130.02,218.554,110.406,226.078,108.966,250.4z"/>
		<path style="opacity:0.19;fill:#6D450B;" d="M131.413,254.426c11.411,0,20.662,9.251,20.662,20.662
			c0,2.77-0.554,5.408-1.543,7.822c-10.535-7.865-21.317-16.131-31.522-24.318C122.466,255.988,126.752,254.426,131.413,254.426z"/>
		<g>
			<path style="fill:#A36307;" d="M102.861,172.107c3.533,3.346,6.879,6.852,10.16,10.413c3.293,3.551,6.476,7.196,9.637,10.86
				c3.126,3.694,6.228,7.408,9.221,11.215c3.004,3.798,5.942,7.652,8.692,11.667c-3.535-3.344-6.883-6.849-10.163-10.41
				c-3.292-3.552-6.475-7.197-9.634-10.862c-3.124-3.696-6.226-7.41-9.218-11.217C108.551,179.974,105.613,176.12,102.861,172.107z"
				/>
		</g>
		<g>
			<path style="fill:#A36307;" d="M110.969,171.236c0.458,0.911,0.669,1.806,0.806,2.697c0.127,0.89,0.157,1.774,0.104,2.653
				c-0.052,0.879-0.191,1.753-0.427,2.62c-0.245,0.867-0.566,1.729-1.136,2.576c-0.461-0.911-0.673-1.806-0.81-2.697
				c-0.127-0.89-0.157-1.774-0.101-2.653c0.056-0.879,0.195-1.752,0.431-2.62C110.083,172.945,110.403,172.083,110.969,171.236z"/>
		</g>
		<path style="fill:none;stroke:#F9F4D4;stroke-width:0.9878;stroke-miterlimit:10;" d="M111.622,151.335
			c0,0-31.319,13.049-36.212,24.468c-4.894,11.418,7.177,38.822,30.014,55.786"/>
		<path style="fill:none;stroke:#F9F4D4;stroke-width:0.9878;stroke-miterlimit:10;" d="M165.125,143.505
			c0,0,26.099,1.748,47.957,50.679"/>
		<g>
			<path style="fill:#A36307;" d="M189.045,218.14c-1.187-4.025-2.133-8.089-2.994-12.167c-0.876-4.076-1.609-8.175-2.315-12.278
				c-0.66-4.111-1.288-8.227-1.775-12.367c-0.502-4.138-0.917-8.29-1.089-12.483c1.19,4.023,2.137,8.087,2.997,12.165
				c0.876,4.076,1.609,8.175,2.311,12.28c0.657,4.112,1.286,8.229,1.772,12.369C188.454,209.798,188.87,213.949,189.045,218.14z"/>
		</g>
		<path style="fill:#893622;" d="M340.422,188.607c-9.856-0.738-5.061-25.324,0.736-37.696l25.394-4.521l16.794,8.888
			C378.56,163.875,361.68,190.997,340.422,188.607z"/>
		<g>
			<path style="fill:#590A06;" d="M340.422,188.607c0.558-1.927,1.386-3.713,2.278-5.467c0.919-1.739,1.904-3.445,3.16-5.01
				c-0.556,1.928-1.384,3.715-2.278,5.467C342.66,185.336,341.676,187.042,340.422,188.607z"/>
		</g>
		<path style="fill:none;stroke:#F9F4D4;stroke-width:0.9878;stroke-miterlimit:10;" d="M383.346,155.279
			c-4.787,8.596-21.666,35.718-42.924,33.328c-9.856-0.738-5.061-25.324,0.736-37.696"/>
		<path style="opacity:0.36;fill:#B74025;" d="M306.591,313.232l52.455-61.456l25.791-20.004
			c-0.237,9.938-0.159,20.143,0.411,30.091c-5.643,8.271-14.249,19.983-21.528,26.057c-9.534,7.956-30.725,24.547-39.012,31.014
			C318.14,317.727,312.039,315.837,306.591,313.232z"/>
		<g>
			<path style="fill:#893622;" d="M391.315,159.237c0,0,16.529,8.7,21.314,20.009c4.785,11.309-2.61,30.656-14.789,49.909
				c-12.179,19.253-27.953,44.482-34.855,51.442c-6.903,6.96-63.885,47.446-63.885,47.446s-2.264-13.953-4.394-18.303
				c53.112-54.808,53.112-54.808,53.112-54.808l21.314-43.172C369.131,211.761,366.086,175.767,391.315,159.237z"/>
			<path style="fill:#6D2517;" d="M362.984,280.597c-0.788,0.795-2.235,2.031-4.17,3.589c-1.483-2.441-2.352-5.296-2.352-8.361
				c0-8.919,7.23-16.149,16.149-16.149c1.797,0,3.52,0.306,5.134,0.848C371.695,269.647,366.309,277.244,362.984,280.597z"/>
			<path style="fill:#893622;" d="M294.704,309.741c0,0-8.501,0.263-14.745,1.522c-3.93,0.792-9.015,0.5-12.2,1.955
				c-3.981,1.819-1.502,6.038,6.001,5.059c3.262,0,5.22,2.121,1.957,2.936c-3.262,0.816-14.681,4.689-15.822,6.83
				c-1.142,2.142,1.957,5.078,5.546,4.099c3.589-0.979,12.56-2.447,12.56-2.447s-8.156,4.078-10.929,5.057s0.326,5.872,4.241,4.894
				c3.915-0.979,7.34-1.468,7.34-1.468s1.468,2.773,8.156,0.326c6.688-2.447,15.804-12.962,18.629-14.984
				C305.569,314.852,294.704,309.741,294.704,309.741z"/>
			<g>
				<path style="fill:#590A06;" d="M278.655,338.178c1.208-1.056,2.555-1.841,3.934-2.563c1.393-0.694,2.82-1.322,4.385-1.678
					c-1.207,1.058-2.554,1.843-3.934,2.563C281.646,337.192,280.219,337.82,278.655,338.178z"/>
			</g>
			<g>
				<path style="fill:#590A06;" d="M369.131,211.761c1.361-3.689,2.993-7.246,4.691-10.771c1.725-3.512,3.519-6.99,5.585-10.336
					c-1.359,3.69-2.991,7.247-4.691,10.771C372.988,204.936,371.195,208.415,369.131,211.761z"/>
			</g>
			<path style="fill:none;stroke:#F9F4D4;stroke-width:0.9878;stroke-miterlimit:10;" d="M391.315,159.237
				c0,0-21.501,8.5-22.154,51.092"/>
		</g>
		<path style="opacity:0.7;fill:#61A49A;" d="M321.718,240.825c0,0,10.57,2.862,21.349,2.38c9.935-0.445-5.499,5.594-24.327,6.308
			C320.813,243.625,321.718,240.825,321.718,240.825z"/>
		<g>
			<path style="fill:#380703;" d="M387.112,126.734l0.969,10.509c6.412-2.02,14.709-4.633,25.506-8.034
				c-0.353-59.352-31.221-65.305-31.221-65.305c-20.265,5.738-15.853,80.132-15.853,80.132s0.019-0.006,18.085-5.697
				L387.112,126.734z"/>
			<path style="opacity:0.26;fill:#FFFFFF;" d="M388.778,76.101c-7.873,0.686-14.526,6.225-20.062,14.03
				c-4.009,23.442-2.203,53.905-2.203,53.905s0.019-0.006,18.085-5.697l2.513-11.606l0.969,10.509
				c1.718-0.541,3.583-1.129,5.583-1.759C402.377,103.6,388.778,76.101,388.778,76.101z"/>
			<path style="fill:#893622;" d="M378.218,110.828c0,0-6.623,24.112-3.949,45.565c-12.527,9.908-23.065,1.177-25.72-5.089
				c3.888-10.315,5.685-21.602,5.685-21.602l17.531-19.319L378.218,110.828z"/>
			<path style="fill:#590A06;" d="M350.564,145.321c11.329-4.61,17.363-17.829,17.363-17.829l-14.032,4.122
				C353.385,134.329,352.291,139.609,350.564,145.321z"/>
			<path style="fill:#FFA506;" d="M349.129,61.359c0,0,23.961-5.384,33.237,2.546c9.275,7.93,9.442,30.222,2.769,42.212
				c-8.641-2.358-11.011-3.33-11.011-3.33L349.129,61.359z"/>
			<path style="fill:#893622;" d="M344.549,71.893c0,0-9.611,2.102-11.674,23.421c-2.063,21.319-4.955,48.909,13.012,43.871
				c17.967-5.038,30.076-14.667,34.646-36.825C384.687,81.456,374.632,63.078,344.549,71.893z"/>
			<g>
				<path style="fill:#541413;" d="M345.22,107.002c0.835-1.108,1.947-1.995,3.164-2.693c1.221-0.701,2.592-1.16,4.008-1.362
					c0.708-0.114,1.429-0.088,2.142-0.079c0.708,0.116,1.425,0.159,2.095,0.417c1.374,0.371,2.59,1.144,3.637,2.025
					c-1.321-0.431-2.559-0.898-3.859-1.063c-1.28-0.219-2.575-0.242-3.844-0.047C350.005,104.529,347.571,105.595,345.22,107.002z"
					/>
			</g>
			<path style="opacity:0.15;fill:#FFFFFF;" d="M372.566,81.572c-6.29-5.943-19.161-7.653-31.317-7.759
				c-2.987,2.557-7.105,8.395-8.374,21.501c-1.719,17.766-4.003,39.869,5.677,43.834C381.414,127.853,372.566,81.572,372.566,81.572
				z"/>
			<path style="fill:#380703;" d="M346.252,96.551c0,0,8.562-5.444,17.555-0.022C364.01,92.141,354.809,87.136,346.252,96.551z"/>
			<path style="fill:#380703;" d="M382.385,79.578c0,0,2.755,15.532-2.155,24.176c-3.673-4.942-10.515-18.045-10.176-24.787
				C370.393,72.224,382.385,79.578,382.385,79.578z"/>
			<path style="fill:#380703;" d="M382.385,79.578c0,0-32.583,14.879-57.877,9.686c-12.544-3.328,7.949-26.663,23.372-27.825
				C364.806,60.164,378.398,65.999,382.385,79.578z"/>
			<g>
				<path style="fill:#541413;" d="M336.936,112.168c0.094,1.435-0.018,2.831-0.169,4.22c-0.154,1.389-0.403,2.76-0.709,4.121
					l-0.879-0.731c0.804-0.265,1.614-0.513,2.439-0.721c0.827-0.203,1.663-0.386,2.53-0.484c-0.711,0.507-1.454,0.93-2.205,1.333
					c-0.753,0.397-1.521,0.755-2.295,1.096l-1.054,0.463l0.175-1.194c0.202-1.38,0.46-2.75,0.814-4.101
					C335.939,114.817,336.335,113.473,336.936,112.168z"/>
			</g>
			<g>
				<path style="fill:#541413;" d="M337.788,124.566c1.943-1.083,3.892-1.947,5.827-2.862c0.978-0.433,1.93-0.909,2.907-1.352
					c0.974-0.453,1.93-0.935,2.962-1.373c-1.425,1.728-3.34,2.954-5.328,3.893c-1.007,0.451-2.036,0.852-3.101,1.142
					C339.995,124.308,338.907,124.529,337.788,124.566z"/>
			</g>
			<g>
				<path style="fill:#541413;" d="M335.396,106.178c-0.812,0.13-1.418-0.069-1.984-0.348c-0.546-0.315-1.045-0.711-1.38-1.46
					c0.786-0.147,1.409,0.06,1.984,0.349C334.572,105.041,335.087,105.446,335.396,106.178z"/>
			</g>
			<path style="opacity:0.94;fill:#A52E00;" d="M366.614,113.245c0.002,2-3.37,3.627-7.532,3.632
				c-4.162,0.005-7.538-1.613-7.541-3.613c-0.003-2.001,3.37-3.627,7.532-3.632C363.235,109.627,366.612,111.244,366.614,113.245z"
				/>
			<path style="fill:#893622;" d="M389.251,114.299c-3.052,5.302-8.583,7.84-12.353,5.669c-3.77-2.17-4.353-8.228-1.3-13.529
				c3.052-5.301,8.583-7.84,12.353-5.669C391.72,102.94,392.302,108.998,389.251,114.299z"/>
			<path style="fill:#6D2517;" d="M390.883,104.854c-3.749-1.731-8.963,0.799-11.895,5.891c-1.852,3.218-2.358,6.709-1.632,9.446
				c3.749,1.731,8.963-0.799,11.895-5.891C391.103,111.082,391.609,107.59,390.883,104.854z"/>
			<path style="opacity:0.26;fill:#FFFFFF;" d="M376.275,69.358c-6.435-6.232-16.599-8.807-28.395-7.919
				c-7.501,0.565-16.191,6.376-21.707,12.578c9.681,0.299,18.376-2.125,18.376-2.125s-25.065,10.899-5.422,9.62
				C354.282,80.527,369.917,72.827,376.275,69.358z"/>
		</g>
		<path style="fill:#6B2A19;" d="M161.486,77.18c0,0,14.38-6.551,17.1-16.656c2.721-10.105-10.396-3.886-10.396-3.886
			s4.178-11.076-1.36-14.38c-5.538-3.304-15.06,8.842-15.06,8.842s3.984-7.552-0.291-9.411c-4.275-1.86-3.109,4.942-15.449,8.828
			c-12.34,3.886-23.513,7.19-26.817,13.505c-3.401-5.15-5.441-3.163-3.984,2.596c-6.218,0.804-7.676,6.731-1.457,6.148
			c-2.429,7.287,2.526,25.553,8.939,35.367c6.413,9.813,9.619,12.728,9.619,12.728l10.688-13.797l9.347-24.485L161.486,77.18z"/>
		<g>
			<path style="fill:#351515;" d="M168.489,56.503c-0.804,1.535-1.85,2.908-2.987,4.192c-1.137,1.288-2.4,2.464-3.761,3.531
				c-1.385,1.033-2.843,1.99-4.443,2.693c-1.594,0.695-3.311,1.189-5.043,1.208c1.568-0.739,2.996-1.544,4.391-2.421
				c1.378-0.902,2.712-1.866,4.017-2.876c1.321-0.992,2.586-2.068,3.885-3.121C165.836,58.64,167.128,57.565,168.489,56.503z"/>
		</g>
		<g>
			<path style="fill:#351515;" d="M151.77,51.1c0.057,2.023-0.345,4.041-0.986,5.971c-0.641,1.937-1.607,3.773-2.811,5.448
				c-0.323,0.403-0.62,0.826-0.968,1.208l-1.068,1.125c-0.364,0.366-0.791,0.669-1.182,1.004l-0.6,0.488l-0.659,0.41
				c-1.697,1.179-3.705,1.819-5.669,2.174c1.731-1.054,3.423-1.984,4.852-3.283c1.445-1.246,2.781-2.608,3.872-4.172
				c1.137-1.526,2.1-3.188,2.962-4.922C150.357,54.807,151.105,52.999,151.77,51.1z"/>
		</g>
		<g>
			<path style="fill:#351515;" d="M144.798,45.891c0.734,2.438,0.774,5.073,0.38,7.616c-0.393,2.551-1.247,5.048-2.516,7.315
				c-1.332,2.219-2.891,4.331-4.863,5.995l-0.709,0.65l-0.772,0.574l-1.555,1.117c-1.083,0.672-2.219,1.257-3.348,1.812
				c0.921-0.887,1.907-1.651,2.817-2.497l1.325-1.303l0.668-0.637l0.607-0.694c0.4-0.465,0.804-0.924,1.218-1.371
				c0.381-0.476,0.73-0.977,1.095-1.461l0.554-0.722l0.483-0.771c0.311-0.52,0.669-1.012,0.942-1.552l0.849-1.604
				c0.26-0.546,0.464-1.117,0.717-1.668c0.462-1.12,0.83-2.279,1.146-3.457C144.451,50.87,144.804,48.419,144.798,45.891z"/>
		</g>
		<path style="fill:#C4714D;" d="M120.582,101.041l-3.035,42.465c0,0,0.626-0.408,7.231,7.185
			c8.019,9.219,27.096,2.423,25.483-9.689l-2.281-17.127L120.582,101.041z"/>
		<path style="fill:#753835;" d="M149.94,138.585c-11.701-4.405-19.836-16.559-19.836-16.559l18.116,3.644
			C148.462,127.494,148.952,131.172,149.94,138.585z"/>
		<path style="fill:#C4714D;" d="M120.775,94.58c0,0-1.457,16.323,3.644,22.299c5.101,5.975,13.408,10.931,27.399,12.388
			c13.991,1.457,12.534-3.061,13.263-14.283c0.729-11.222,1.457-43.577-6.413-47.075c-7.87-3.498-29.586,0.729-32.355,5.393
			c-2.769,4.664-2.769,10.931-1.895,16.032C125.293,94.434,120.775,94.58,120.775,94.58z"/>
		<path style="fill:#EFEEE4;" d="M142.844,90.256c3.173,0,5.745,2.219,5.745,4.955c0,0.053-0.007,0.104-0.009,0.157
			c-1.764,0.641-3.702,0.996-5.736,0.996c-2.034,0-3.972-0.355-5.736-0.996c-0.002-0.052-0.009-0.104-0.009-0.157
			C137.098,92.475,139.671,90.256,142.844,90.256z"/>
		<path style="fill:#51200B;" d="M160.919,95.511c-0.002-0.045-0.008-0.089-0.008-0.134c0-2.177,1.9-3.968,4.347-4.214
			c0.091,1.727,0.155,3.465,0.194,5.185C163.85,96.306,162.319,96.019,160.919,95.511z"/>
		<g>
			<path style="fill:#8C4A43;" d="M148.952,91.13c-0.886-0.708-1.864-1.282-2.894-1.704c-1.031-0.415-2.129-0.67-3.23-0.65
				c-1.095-0.007-2.207,0.19-3.22,0.651c-0.536,0.165-0.993,0.501-1.495,0.753c-0.483,0.286-0.921,0.643-1.403,0.951
				c0.416-0.382,0.832-0.777,1.282-1.13c0.488-0.295,0.937-0.671,1.477-0.883c1.024-0.544,2.205-0.756,3.361-0.782
				c1.163,0.017,2.322,0.283,3.363,0.782C147.23,89.618,148.187,90.286,148.952,91.13z"/>
		</g>
		<g>
			<path style="fill:#8C4A43;" d="M165.189,90.056c-0.637,0.007-1.326,0.192-1.95,0.458c-0.628,0.276-1.22,0.651-1.752,1.102
				c0.482-0.505,1.037-0.948,1.654-1.3c0.626-0.342,1.284-0.613,2.041-0.702L165.189,90.056z"/>
		</g>
		<path style="fill:#51200B;" d="M146.378,78.231c-2.89-0.118-8.61,0.32-12.195,5.03c-0.093-3.981,1.756-9.639,12.357-9.322
			c1.123,0.034,2.061,0.931,2.105,2.054c0.001,0.028,0.002,0.057,0.003,0.085C148.677,77.31,147.61,78.281,146.378,78.231z"/>
		<path style="fill:#51200B;" d="M162.25,79.162c-1.14,0.047-2.128-0.853-2.102-1.994c0.001-0.026,0.001-0.052,0.003-0.079
			c0.041-1.04,0.909-1.871,1.949-1.902c0.352-0.01,0.67,0.001,1.001,0.005c0.338,1.224,0.629,2.566,0.885,3.985
			C163.336,79.14,162.747,79.142,162.25,79.162z"/>
		<path style="fill:#C4714D;" d="M108.087,99.31c2.195,4.808,6.864,7.387,10.427,5.76c3.564-1.627,4.674-6.844,2.478-11.652
			c-2.195-4.808-6.864-7.387-10.427-5.76C107.001,89.285,105.892,94.502,108.087,99.31z"/>
		<g>
			<path style="fill:#542121;" d="M137.108,95.368c-0.128-0.712-0.016-1.467,0.244-2.169c0.282-0.696,0.738-1.325,1.305-1.829
				c1.131-1.026,2.669-1.544,4.187-1.554c1.518,0.009,3.057,0.528,4.188,1.553c0.566,0.505,1.023,1.134,1.305,1.83
				c0.26,0.702,0.372,1.458,0.243,2.17c-0.109-1.446-0.915-2.675-1.987-3.469c-1.079-0.798-2.415-1.205-3.75-1.202
				c-1.334-0.004-2.671,0.404-3.751,1.201C138.021,92.692,137.215,93.922,137.108,95.368z"/>
		</g>
		<path style="fill:none;stroke:#542121;stroke-width:0.7562;stroke-miterlimit:10;" d="M160.919,95.511
			c-0.002-0.045-0.008-0.089-0.008-0.134c0-2.177,1.899-3.971,4.347-4.217"/>
		<path style="fill:#A35134;" d="M118.055,101.192c0,1.548-0.359,3.006-0.982,4.3c-3.297,0.491-7.077-2.001-8.986-6.183
			c-1.19-2.606-1.401-5.327-0.785-7.536c0.524-0.098,1.061-0.158,1.612-0.158C113.962,91.616,118.055,95.904,118.055,101.192z"/>
		<path style="fill:#6B2A19;" d="M124.419,89.333c0,0,1.686,19.143,13.791,20.918c6.973-5.956,19.622-6.538,27.191-2.264
			c2.517,13.602,2,25.652-5.029,25.554c-7.028-0.098-41.852-3.4-39.597-38.962C121.086,84.474,124.419,89.333,124.419,89.333z"/>
		<path style="fill:#EFEEE4;" d="M158.279,110.465c0,0-4.761-0.583-7.579-2.137c-2.818-1.555-5.441-0.486-3.886,1.554
			c1.555,2.04,6.413,3.206,9.036,3.012C158.474,112.7,159.748,110.698,158.279,110.465z"/>
		<path style="fill:#C4714D;" d="M158.178,102.34c0,0,0.859,3.352,0.721,4.882c-2.038-0.274-5.02-1.749-5.604-2.113
			C152.712,104.745,158.178,102.34,158.178,102.34z"/>
		<g>
			<path style="fill:#590A06;" d="M156.725,97.507c0.476,0.741,0.889,1.522,1.247,2.327c0.359,0.805,0.668,1.634,0.924,2.481
				c0.501,1.694,0.817,3.479,0.689,5.287l-0.034,0.482l-0.442-0.121c-0.883-0.242-1.76-0.517-2.612-0.866
				c-0.428-0.166-0.845-0.367-1.252-0.581c-0.404-0.217-0.814-0.442-1.15-0.758c0.813,0.41,1.693,0.626,2.561,0.857
				c0.872,0.221,1.751,0.412,2.632,0.595l-0.476,0.36c-0.012-0.843-0.078-1.687-0.202-2.529c-0.124-0.843-0.304-1.679-0.489-2.518
				c-0.203-0.835-0.421-1.67-0.656-2.505C157.225,99.185,156.988,98.346,156.725,97.507z"/>
		</g>
		<path style="opacity:0.26;fill:#FFFFFF;" d="M158.668,67.909c6.582,2.925,7.149,26.027,6.732,40.078c0,0,0,0,0.001,0
			c2.517,13.602,2,25.652-5.029,25.554c-2.164-0.03-6.963-0.368-12.502-1.853c-4.124-4.039-5.534-10.94-9.661-21.437
			c-7.645-9.385-8.105-39.619-8.106-39.686C137.375,67.236,152.403,65.124,158.668,67.909z"/>
		<path style="opacity:0.27;fill:#AF0808;" d="M134.667,102.012c0,1.529,2.635,2.769,5.886,2.769c3.251,0,5.886-1.24,5.886-2.769
			c0-1.529-2.635-2.769-5.886-2.769C137.302,99.243,134.667,100.482,134.667,102.012z"/>
		<path style="opacity:0.27;fill:#AF0808;" d="M165.474,104.71c-2.621-0.28-4.58-1.381-4.58-2.699c0-1.322,1.97-2.426,4.603-2.701
			C165.512,101.172,165.501,102.983,165.474,104.71z"/>
		<path style="fill:#51200B;" d="M142.844,90.256c-0.819,0-1.597,0.15-2.302,0.417c-0.582,0.881-0.923,1.936-0.923,3.071
			c0,0.861,0.201,1.673,0.549,2.402c0.869,0.137,1.761,0.219,2.676,0.219c2.034,0,3.972-0.355,5.736-0.996
			c0.002-0.052,0.009-0.104,0.009-0.157C148.589,92.475,146.017,90.256,142.844,90.256z"/>
		<path style="fill:#6D2517;" d="M359.246,153.656c0,0-5.022,4.157-8.682,5.581c-3.66,1.424,0-6.895,0-6.895
			S354.074,155.407,359.246,153.656z"/>
		<path style="opacity:0.51;fill:#352009;" d="M283.34,242.857c0,0,0.192,29.656-0.959,39.659
			c-1.151,10.004,3.988,12.955,3.988,12.955s0.723,9.292,2.628,10.127c1.904,0.835,10.54-1.062,10.712-2.116
			c0.173-1.054,0-22.555,0-22.555S287.428,242.713,283.34,242.857z"/>
		<path style="fill:#FFA506;" d="M266.131,242.33c0,0,24.739-7.14,34.388-5.702c9.65,1.438,11.55,13.446,11.516,29.98
			c-0.034,16.534-7.6,28.271-10.509,28.848c-12.974,1.056-8.66,5.369-12.974,1.056c-4.313-4.313,0.482-31.337-5.211-53.654
			c-17.209,0-17.209,0-17.209,0"/>
		<polygon style="fill:#773D15;" points="282.814,243.195 277.972,222.922 157.231,222.922 163.551,243.195 		"/>
		<path style="opacity:0.35;fill:#A36307;" d="M283.34,242.857c0,0,11.056,6.28,11.695,22.318
			C295.674,281.213,304.219,248.891,283.34,242.857z"/>
		<path style="fill:#A36307;" d="M290.804,298.019c0,0,0.486,7.05,1.88,9.333c8.101-1.549,10.098-2.774,10.098-2.774
			s1.402-4.142-1.256-9.123C296.952,293.987,292.959,295.983,290.804,298.019z"/>
		<path style="fill:#FFA506;" d="M295.729,306.724c2.054-0.457,3.552-0.868,4.623-1.206c-0.467-3.118-1.284-8.077-2.086-10.566
			c-1.868,0.014-3.561,0.543-4.968,1.29C293.584,298.451,294.313,303.081,295.729,306.724z"/>
		<path style="fill:#A36307;" d="M307.093,270.455c-4.078,0-7.383,3.306-7.383,7.383c0,4.078,3.306,7.383,7.383,7.383
			c0.544,0,1.072-0.063,1.583-0.174c1.389-3.592,2.545-7.98,3.064-12.943C310.47,271.074,308.854,270.455,307.093,270.455z"/>
		<path style="fill:#A36307;" d="M293.456,275.1c0-3.328-2.698-6.027-6.027-6.027c-0.362,0-0.715,0.038-1.06,0.099
			c0.101,4.247,0.094,8.269,0.117,11.874c0.308,0.048,0.621,0.081,0.943,0.081C290.757,281.127,293.456,278.429,293.456,275.1z"/>
		<path style="fill:#A36307;" d="M299.018,242.995c0,5.437,4.408,9.844,9.844,9.844c0.846,0,1.663-0.118,2.446-0.319
			c-1.161-8.626-3.963-14.454-10.065-15.757C299.854,238.461,299.018,240.63,299.018,242.995z"/>
	</g>
	<g>
		<defs>
			<rect id="SVGID_1_" x="195.797" y="338.965" width="149.427" height="116.917"/>
		</defs>
		<clipPath id="SVGID_00000084502838583183474500000009540285726155691196_">
			<use xlink:href="#SVGID_1_"  style="overflow:visible;"/>
		</clipPath>
		<g style="clip-path:url(#SVGID_00000084502838583183474500000009540285726155691196_);">
			<g>
				<path style="fill:none;stroke:#FFA506;stroke-width:1.9222;stroke-miterlimit:10;" d="M276.473,520.2
					c0,0-35.658-15.152-46.398-145.398"/>
				<g>
					<path style="fill:#FFA506;" d="M215.812,382.56c15.386,6.448,17.78,19.675,17.78,19.675s-13.415-0.838-21.611-15.368
						C210.544,384.318,213.114,381.429,215.812,382.56z"/>
					<path style="fill:#FFA506;" d="M247.573,379.701c-13.988,9.092-13.981,22.533-13.981,22.533s13.05-3.22,18.52-18.98
						C253.071,380.491,250.026,378.107,247.573,379.701z"/>
				</g>
				<g>
					<path style="fill:#FFA506;" d="M218.614,415.776c15.956,4.87,19.667,17.789,19.667,17.789s-13.431,0.515-23.046-13.119
						C213.55,418.055,215.816,414.922,218.614,415.776z"/>
					<path style="fill:#FFA506;" d="M249.928,409.74c-13.003,10.452-11.646,23.825-11.646,23.825s12.66-4.515,16.519-20.746
						C255.477,409.973,252.208,407.908,249.928,409.74z"/>
				</g>
				<g>
					<path style="fill:#FFA506;" d="M223.011,444.217c16.273,3.675,20.93,16.284,20.93,16.284s-13.356,1.507-23.954-11.378
						C218.129,446.865,220.158,443.572,223.011,444.217z"/>
					<path style="fill:#FFA506;" d="M253.792,435.88c-12.194,11.386-9.852,24.621-9.852,24.621s12.292-5.439,14.938-21.911
						C259.343,435.702,255.93,433.884,253.792,435.88z"/>
				</g>
				<path style="fill:#FFA506;" d="M232.483,350.437c5.838,15.628-2.161,26.43-2.161,26.43s-8.577-10.349-3.601-26.273
					C227.594,347.803,231.459,347.697,232.483,350.437z"/>
			</g>
			<g>
				<path style="fill:#61A49A;" d="M267.589,508.405c0,0,44.415-43.759,31.426-50.775c-12.989-7.016-20.88,13.491-20.502-13.003
					c0.378-26.494,19.67-77.149-4.467-76.029C249.91,369.717,235.785,468.533,267.589,508.405z"/>
				<g style="opacity:0.59;">
					<path style="fill:#305866;" d="M274.046,368.598c-1.229,5.521-2.358,11.062-3.376,16.622
						c-1.05,5.554-2.013,11.124-2.871,16.709c-1.717,11.168-3.19,22.378-4.056,33.639c-0.489,5.625-0.83,11.263-1,16.905
						c-0.112,2.821-0.116,5.643-0.145,8.465c0.047,2.821,0.033,5.644,0.152,8.463c0.178,5.64,0.573,11.278,1.336,16.871
						c0.711,5.599,1.766,11.158,3.252,16.618c-3.41-10.803-4.931-22.144-5.476-33.451c-0.321-5.66-0.316-11.333-0.169-16.996
						c0.138-5.664,0.441-11.324,0.901-16.97c0.964-11.288,2.424-22.528,4.333-33.688
						C268.861,390.632,271.137,379.533,274.046,368.598z"/>
				</g>
				<path style="fill:#407C72;" d="M286.118,383.573c-4.552,5.951-13.152,18.817-14.632,32.732
					c-1.308,12.302,4.109,15.371,8.124,16.003C281.858,416.254,286.707,396.745,286.118,383.573z"/>
				<path style="fill:#407C72;" d="M249.405,449.344c12.698-9.162,5.45-22.639,0.795-29.049
					C249.202,429.619,248.889,439.508,249.405,449.344z"/>
				<path style="fill:#407C72;" d="M301.345,462.788c-11.062,2.329-36.159,10.132-20.106,31.08
					C290.278,483.606,300.6,470.384,301.345,462.788z"/>
			</g>
			<path style="fill:#61A49A;" d="M256.238,352.822c1.803,2.373,1.341,5.759-1.033,7.562c-2.373,1.803-5.759,1.34-7.562-1.033
				c-1.803-2.373-1.34-5.759,1.033-7.562C251.049,349.986,254.435,350.448,256.238,352.822z"/>
			<g>
				<path style="fill:#61A49A;" d="M292.987,441.315c0,0-10.723-26.71,15.585-41.873
					C314.387,415.144,304.654,432.585,292.987,441.315z"/>
				<path style="fill:#407C72;" d="M308.573,399.442c0,0-12.387,18.246-15.585,41.873
					C304.654,432.585,314.387,415.144,308.573,399.442z"/>
				<g>
					<path style="fill:#305866;" d="M308.573,399.442c-1.058,1.94-2.107,3.878-3.063,5.865c-0.997,1.964-1.941,3.954-2.845,5.96
						c-1.807,4.012-3.503,8.071-4.944,12.222c-1.509,4.128-2.689,8.361-3.743,12.623l-0.694,3.221
						c-0.246,1.073-0.352,2.167-0.541,3.251c-0.444,2.163-0.515,4.365-0.803,6.562c-0.042-4.417,0.359-8.855,1.209-13.21
						c0.867-4.348,2.035-8.643,3.535-12.816c1.54-4.157,3.236-8.257,5.219-12.217C303.892,406.95,306.056,403.078,308.573,399.442z"
						/>
				</g>
			</g>
		</g>
	</g>
	<g>
		<path style="fill:#022435;" d="M205.482,68.513c0,0,28.209-9.226,40.996,3.62C261.285,60.39,273,55.289,283.242,55.68
			C273.235,42.004,215.637,27.03,205.482,68.513z"/>
		<path style="fill:#61A49A;" d="M205.482,68.513c0,0,4.361-14.641,25.059-12.65c9.647-9.724,16.485-8.778,27.848-2.876
			c7.286-5.179,15.343-5.744,24.853,2.693c-4.554-18.913-25.34-27.078-42.263-25.372C224.055,32.014,202.566,45.855,205.482,68.513z
			"/>
		<path style="fill:#305866;" d="M240.978,30.308c-12.271,7.647-10.438,25.555-10.438,25.555c9.647-9.724,16.485-8.778,27.848-2.876
			C258.388,52.987,260.554,38.688,240.978,30.308z"/>
		<polyline style="fill:none;stroke:#4F2222;stroke-width:1.0697;stroke-miterlimit:10;" points="283.242,55.68 255.334,107.99 
			205.482,68.513 		"/>
		<polyline style="fill:none;stroke:#4F2222;stroke-width:1.0697;stroke-miterlimit:10;" points="258.388,52.987 255.334,107.99 
			230.541,55.863 		"/>
		
			<line style="fill:none;stroke:#4F2222;stroke-width:1.0697;stroke-miterlimit:10;" x1="246.478" y1="72.134" x2="255.334" y2="107.99"/>
		<polygon style="fill:#BF7A4B;" points="292.393,98.885 300.804,142.739 251.481,139.986 242.528,93.188 		"/>
		<polygon style="fill:#A06338;" points="242.528,93.188 207.178,113.327 216.583,160.363 251.481,139.986 		"/>
		<polygon style="fill:#6D4122;" points="216.583,160.363 262.939,164.926 300.804,142.739 251.481,139.986 		"/>
		<polygon style="fill:#FFF6E7;" points="229.175,153.011 238.995,147.277 238.995,147.277 237.383,142.123 228.143,147.283 		"/>
		<polygon style="fill:#FFF6E7;" points="217.676,107.346 219.703,113.828 230.092,108.308 228.542,101.155 		"/>
		
			<line style="fill:none;stroke:#590A06;stroke-width:1.0223;stroke-miterlimit:10;" x1="222.603" y1="104.539" x2="234.523" y2="149.888"/>
		<polygon style="fill:#C6B397;" points="229.175,153.011 236.472,154.144 246.294,148.423 238.995,147.277 		"/>
		<polygon style="fill:#C6B397;" points="275.114,157.792 269.671,157.395 279.852,150.804 285.856,151.498 		"/>
		
			<line style="fill:none;stroke:#590A06;stroke-width:1.0223;stroke-miterlimit:10;" x1="234.523" y1="149.888" x2="280.006" y2="154.926"/>
		<path style="fill:#FFF6E7;" d="M280.797,104.871c6.66,4.124,8.835,12.674,4.857,19.099c-3.977,6.425-12.601,8.291-19.261,4.168
			c-6.66-4.123-8.835-12.674-4.858-19.099C265.513,102.614,274.137,100.748,280.797,104.871z"/>
		<polygon style="fill:#61A49A;" points="269.797,106.542 271.666,126.775 279.69,126.349 277.393,106.542 		"/>
		<polygon style="fill:#61A49A;" points="283.898,113.85 263.421,113.354 264.246,119.656 284.558,119.656 		"/>
		<path style="opacity:0.33;fill:#FFF6E7;" d="M297.327,124.608l-4.933-25.723L259.264,95.1
			C262.133,105.668,270.86,122.87,297.327,124.608z"/>
	</g>
	<g>
		<polygon style="fill:#4B8C81;" points="121.377,390.788 46.051,375.545 59.336,403.228 39.645,425.687 113.162,447.467 		"/>
		<polygon style="fill:#305866;" points="88.096,397.424 121.377,390.788 121.377,427.826 		"/>
		<polygon style="fill:#4B8C81;" points="378.628,390.788 453.954,375.545 440.669,403.228 460.361,425.687 386.843,447.467 		"/>
		<polygon style="fill:#305866;" points="411.909,397.424 378.628,390.788 378.628,427.826 		"/>
		<path style="fill:#61A49A;" d="M250.003,422.035c0,0-74.737,0.937-161.907-24.611c0,55.18,0,47.013,0,47.013
			s60.184,24.739,161.907,24.739c101.723,0,161.906-24.739,161.906-24.739s0,8.168,0-47.013
			C324.74,422.972,250.003,422.035,250.003,422.035z"/>
	</g>
</g>
<g id="TEXTS">
	<path id="SVGID_x5F_00000165925870011869182610000012224506157709387181_x5F_" style="fill:none;" d="M99.302,435.098
		c0,0,162.84,43.467,301.026-0.649"/>
	<text>	<textPath  xlink:href="#SVGID_x5F_00000165925870011869182610000012224506157709387181_x5F_" startOffset="14.014%">
<tspan  style="fill:#F9F4D4; font-family:'RammettoOne-Regular'; font-size:21.6075px;">HUMANITARIAN </tspan><tspan  style="fill:#152F3A; font-family:'RammettoOne-Regular'; font-size:21.6075px;">DAY</tspan>	</textPath>
</text>
</g>
</svg>
